<?xml version="1.0" encoding="utf-8"?>
<!-- Generator: Adobe Illustrator 22.1.0, SVG Export Plug-In . SVG Version: 6.00 Build 0)  -->
<svg version="1.1" id="Слой_1" xmlns="http://www.w3.org/2000/svg" xmlns:xlink="http://www.w3.org/1999/xlink" x="0px" y="0px"
	 viewBox="0 0 250 175" style="enable-background:new 0 0 250 175;" xml:space="preserve">
<style type="text/css">
	.st0{fill:#FFFFFF;}
</style>
<path class="st0" d="M4.5,173.2V83H21v5.4c4.1-4.9,10-7,16.3-7c8.6,0,14.8,3.3,19.3,8.4c6.7,7.6,7.2,16.5,7.2,24.5
	c0,7.9-0.9,19.1-9.4,26.7c-3.3,2.9-8.9,6.1-17.7,6.1c-8,0-12-2.4-13.7-3.4v29.5H4.5z M23,130.6c3.7,2.7,7.6,3.3,10.1,3.3
	c4.7,0,7.2-2,8.4-3.4c2.5-3,2.8-7.5,2.8-11.3v-10.5c0-3.2-0.1-7.6-2.5-10.6c-2.4-3-5.8-3.4-7.7-3.4c-4.3,0-8.5,2.4-11,5.1V130.6z"/>
<path class="st0" d="M118.6,139.4h-0.5c-6.1,7.2-15.8,7.7-19.3,7.7c-4.9,0-11.2-0.5-16.5-4.8c-3.4-2.9-6.5-7.2-6.5-14.2
	c0-5.2,1.8-12.2,10.4-16.1c7.1-3.2,19.3-3.5,24.1-3.5h7.2v-6.2c0-1.8-0.1-4.7-2-6.7c-2.3-2.5-6.5-2.7-8.6-2.7
	c-2.3,0-4.9,0.1-7.1,1.4c-1.1,0.6-3.2,1.9-3.2,5.3c0,1,0.1,1.9,0.3,2.4l-16.7-0.4c-2.8-6.3-1-12.5,4.1-15.8c1.6-1.1,7.3-4.3,22-4.3
	c6.7,0,17,0.6,23.6,6.5c6.5,5.7,6.2,11.9,6.2,18.2v39.4h-17.5V139.4z M117.6,118h-6c-6.3,0-16.2,0.5-16.2,9.1c0,4.2,2.5,8.2,9.6,8.2
	c4.9,0,8.7-1.8,12.5-6V118z"/>
<path class="st0" d="M169.8,4.5v7.7l1.4-1.9C173,7.8,177.8,3,186.4,3c2.3,0,7.5,0.1,11.2,2.9c2.3,1.8,4.9,5.2,4.8,10.4l-13.9,6.5
	c-1.1-2.9-3.8-4.7-7.1-4.7c-2.7,0-5.1,1.1-6.3,2.8c-2.3,2.8-2.4,7.6-2.4,9.5c0.1,38.5,0.3,77.1,0.4,115.6c-6.3,0-12.7,0-19,0
	c0-47.2,0.1-94.3,0.1-141.5H169.8z"/>
<polygon class="st0" points="205.5,104.1 226.6,83 248.4,83 223.9,106.3 249,145.6 227.1,145.6 210.7,118.8 205.5,123.5 
	205.5,145.6 187,145.6 187,43 206,43 "/>
<g>
	<path class="st0" d="M4.3,28.4h6.2l10.8,21.2l10.2-21.2h6.2v39.2h-5.5V37L21.9,57.8h-2.3L9.4,37v30.6h-5V28.4z"/>
	<path class="st0" d="M51.3,55.9c0,3.3,1,5.2,1.9,6.1c1.3,1.4,3.6,2.2,6.2,2.2c1.6,0,2.7-0.2,4.3-0.7c1.2-0.4,2.2-0.8,3.1-1.3
		l1.6,3.2c-0.8,0.4-2.1,1.1-3.3,1.6c-2.2,0.8-4.4,1.1-6.4,1.1c-4.5,0-7.7-1.9-9.6-3.9c-2.8-3.1-3.3-7.6-3.3-10.7
		c0-2.7,0.3-6.9,3.1-10.1c1.7-1.9,4.5-3.6,8.3-3.6c3.5,0,6.2,1.3,8,3.3C68,46,68.1,49.6,68.1,54v1.2H51.3V55.9z M62.9,51.6v-1.1
		c0-1.9,0-4-1.8-5.7c-1.1-1-2.4-1.3-3.9-1.3c-2.1,0-3.4,1-4.1,1.8c-0.8,0.9-1.8,2.6-1.8,5.8v0.6H62.9z"/>
	<path class="st0" d="M77.1,40.4v-9.6H82v9.6h6.1v3.7H82v23.5h-4.9V44.1h-4.8v-3.7H77.1z"/>
	<path class="st0" d="M97.8,40.4v4.1c1.1-2,2.4-3,3.6-3.6c1.3-0.7,2.5-1.1,4-1.1c1.8,0,3,0.5,3.9,1.1c0.6,0.4,1.3,1.3,1.6,2.7
		l-3.6,2.6c-0.2-0.6-0.6-1-1-1.3c-0.6-0.4-1.3-0.7-2.4-0.7c-2,0-3.3,0.9-4,1.7c-1.6,1.7-1.8,4.1-1.8,5.9v15.6h-4.9V40.4H97.8z"/>
	<path class="st0" d="M133.8,43.4c2.8,3,3.4,7.3,3.4,10.7s-0.6,7.6-3.4,10.7c-1.8,1.9-4.8,3.5-8.8,3.5c-4,0-7-1.6-8.8-3.5
		c-2.8-3-3.4-7.3-3.4-10.7s0.6-7.6,3.4-10.7c1.8-1.9,4.8-3.5,8.8-3.5C129.1,39.8,132,41.5,133.8,43.4z M131.7,52.8
		c0-2.6,0-5.4-2-7.5c-0.8-0.8-2.2-1.9-4.7-1.9s-3.9,1-4.7,1.9c-2,2.1-2,4.9-2,7.5v2.5c0,2.6,0,5.4,2,7.5c0.8,0.8,2.2,1.9,4.7,1.9
		s3.9-1,4.7-1.9c2-2.1,2-4.9,2-7.5V52.8z"/>
</g>
</svg>
